<svg width="13" height="14" viewBox="0 0 13 14" fill="none" xmlns="http://www.w3.org/2000/svg">
<g clip-path="url(#clip0_1_31)">
<path d="M11.9737 9.45499C11.1718 9.45499 10.3863 9.32978 9.64189 9.08414C9.27858 8.95893 8.866 9.0554 8.62722 9.29899L7.15137 10.4136C5.45795 9.50974 4.37416 8.42662 3.48265 6.74551L4.56711 5.30456C4.84011 5.03156 4.93796 4.63197 4.82096 4.25772C4.57327 3.50851 4.44738 2.72235 4.44738 1.92182C4.44738 1.35597 3.98692 0.895508 3.42107 0.895508H1.02632C0.460463 0.895508 0 1.35597 0 1.92182C0 8.52377 5.37174 13.8955 11.9737 13.8955C12.5395 13.8955 13 13.435 13 12.8692V10.4813C13 9.91545 12.5395 9.45499 11.9737 9.45499Z" fill="white"/>
</g>
<defs>
<clipPath id="clip0_1_31">
<rect width="13" height="13" fill="white" transform="translate(0 0.895508)"/>
</clipPath>
</defs>
</svg>
